<svg xmlns="http://www.w3.org/2000/svg" viewBox="-0.5 -0.5 251.585 42.701">
  <title>Haevian logo, white</title>
  <g fill="#FFFFFF">
    <path d="M0 41.701V0h9.174v16.894h16.537V0h9.174v41.701h-9.174V24.806H9.174v16.895z"/>
    <path d="M62.324 0 47.715 41.701h-9L53.324 0z"/>
    <path d="M54.235 0 68.844 41.701h9L63.235 0z"/>
    <path d="M81.674 41.701V0h27.214l-2.624 7.529H90.848v9.842h12.563l-2.433 6.928-10.13.031v9.841h19.04l-2.621 7.53z"/>
    <path d="m136.337 41.701-14.609-41.701h-9l14.609 41.701z"/>
    <path d="m128.248 41.701 14.609-41.701h9l-14.609 41.701z"/>
    <path d="M155.914 0h9.245v41.701h-9.245z"/>
    <path d="M193.16 0 178.552 41.701h-9L184.16 0z"/>
    <path d="M185.072 0 199.68 41.701h9L194.072 0z"/>
    <path d="M212.699 41.701V0h9.603l19.871 29.62V0h8.412v41.701h-9.532L221.182 12.51v29.191z"/>
  </g>
</svg>
