<svg xmlns="http://www.w3.org/2000/svg" viewBox="-0.5 -0.5 271.585 42.701">
  <title>Haevian logo, white</title>
  <g fill="#FFFFFF">
    <path d="M0 41.701V0h9.174v16.894h16.537V0h9.174v41.701h-9.174V24.806H9.174v16.895z"/>
    <path d="M66.324 0 51.715 41.701h-9L57.324 0z"/>
    <path d="M58.235 0 72.844 41.701h9L67.235 0z"/>
    <path d="M89.674 41.701V0h27.214l-2.624 7.529H98.848v9.842h12.563l-2.433 6.928-10.13.031v9.841h19.04l-2.621 7.53z"/>
    <path d="m148.85 41.701-14.609-41.701h-9l14.609 41.701z"/>
    <path d="m140.761 41.701 14.609-41.701h9l-14.609 41.701z"/>
    <path d="M171.914 0h9.245v41.701h-9.245z"/>
    <path d="M212.16 0 197.552 41.701h-9L203.16 0z"/>
    <path d="M204.072 0 218.68 41.701h9L213.072 0z"/>
    <path d="M235.699 41.701V0h9.603l16.871 29.62V0h8.412v41.701h-9.532L244.182 12.51v29.191z"/>
  </g>
</svg>
